<svg data-v-423bf9ae="" xmlns="http://www.w3.org/2000/svg" viewBox="0 0 333.76439326837914 163" class="iconAbove"><!----><!----><!----><g data-v-423bf9ae="" id="e1b0e09a-2465-429c-ad02-6b4e6642d489" fill="black" transform="matrix(4.53498649597168,0,0,4.53498649597168,-3.224078416824341,84.4526138305664)"><path d="M7.04 14.35L7.04 13.65L6.08 13.65L6.08 9.41C6.08 7.90 5.14 7.01 3.47 7.01C2.17 7.01 1.37 7.63 0.98 8.46L1.48 8.88C1.88 8.13 2.49 7.71 3.44 7.71C4.66 7.71 5.28 8.32 5.28 9.49L5.28 10.33L3.63 10.33C1.55 10.33 0.71 11.13 0.71 12.40C0.71 13.73 1.58 14.52 3.08 14.52C4.20 14.52 4.93 14.01 5.25 13.22L5.32 13.22L5.32 13.47C5.36 14 5.61 14.35 6.23 14.35ZM3.19 13.83C2.21 13.83 1.55 13.38 1.55 12.56L1.55 12.22C1.55 11.42 2.17 10.93 3.60 10.93L5.28 10.93L5.28 12.26C5.28 13.23 4.35 13.83 3.19 13.83ZM9.07 5.24C9.45 5.24 9.62 5.03 9.62 4.73L9.62 4.59C9.62 4.30 9.45 4.09 9.07 4.09C8.69 4.09 8.53 4.30 8.53 4.59L8.53 4.73C8.53 5.03 8.69 5.24 9.07 5.24ZM8.68 14.35L9.48 14.35L9.48 7.18L8.68 7.18ZM12.88 14.35L12.88 9.45C12.88 8.53 13.73 7.97 14.92 7.97L15.55 7.97L15.55 7.18L15.08 7.18C13.85 7.18 13.22 7.80 12.94 8.47L12.88 8.47L12.88 7.18L12.08 7.18L12.08 14.35ZM22.41 14.52C24.00 14.52 24.96 13.72 24.96 12.39C24.96 11.24 24.28 10.61 22.82 10.39L22.25 10.30C21.22 10.14 20.71 9.81 20.71 8.99C20.71 8.18 21.31 7.70 22.33 7.70C23.32 7.70 23.91 8.16 24.29 8.61L24.82 8.12C24.29 7.48 23.56 7.01 22.37 7.01C20.99 7.01 19.94 7.69 19.94 9.03C19.94 10.32 20.83 10.84 22.13 11.03L22.72 11.13C23.76 11.28 24.19 11.72 24.19 12.47C24.19 13.34 23.56 13.83 22.47 13.83C21.52 13.83 20.83 13.45 20.24 12.68L19.66 13.15C20.30 14.03 21.17 14.52 22.41 14.52ZM29.58 14.52C30.90 14.52 31.77 13.90 32.23 12.95L31.64 12.56C31.23 13.36 30.56 13.80 29.58 13.80C28.13 13.80 27.34 12.78 27.34 11.27L27.34 10.26C27.34 8.75 28.13 7.73 29.58 7.73C30.52 7.73 31.12 8.16 31.46 8.93L32.13 8.60C31.71 7.66 30.90 7.01 29.58 7.01C27.62 7.01 26.49 8.40 26.49 10.77C26.49 13.13 27.62 14.52 29.58 14.52ZM39.75 14.35L39.75 13.65L38.78 13.65L38.78 9.41C38.78 7.90 37.84 7.01 36.18 7.01C34.87 7.01 34.08 7.63 33.68 8.46L34.19 8.88C34.58 8.13 35.20 7.71 36.15 7.71C37.37 7.71 37.98 8.32 37.98 9.49L37.98 10.33L36.33 10.33C34.26 10.33 33.42 11.13 33.42 12.40C33.42 13.73 34.29 14.52 35.78 14.52C36.90 14.52 37.63 14.01 37.95 13.22L38.02 13.22L38.02 13.47C38.07 14 38.32 14.35 38.93 14.35ZM35.90 13.83C34.92 13.83 34.26 13.38 34.26 12.56L34.26 12.22C34.26 11.42 34.87 10.93 36.30 10.93L37.98 10.93L37.98 12.26C37.98 13.23 37.06 13.83 35.90 13.83ZM42.18 14.35L42.18 9.31C42.18 8.25 43.12 7.73 44.13 7.73C45.32 7.73 45.96 8.43 45.96 9.88L45.96 14.35L46.76 14.35L46.76 9.74C46.76 7.99 45.86 7.01 44.34 7.01C43.19 7.01 42.55 7.57 42.22 8.32L42.18 8.32L42.18 7.18L41.38 7.18L41.38 14.35ZM50.06 14.35L50.06 9.31C50.06 8.25 51.00 7.73 52.01 7.73C53.20 7.73 53.84 8.43 53.84 9.88L53.84 14.35L54.64 14.35L54.64 9.74C54.64 7.99 53.75 7.01 52.22 7.01C51.07 7.01 50.43 7.57 50.11 8.32L50.06 8.32L50.06 7.18L49.27 7.18L49.27 14.35ZM57.54 5.24C57.92 5.24 58.09 5.03 58.09 4.73L58.09 4.59C58.09 4.30 57.92 4.09 57.54 4.09C57.16 4.09 56.99 4.30 56.99 4.59L56.99 4.73C56.99 5.03 57.16 5.24 57.54 5.24ZM57.15 14.35L57.95 14.35L57.95 7.18L57.15 7.18ZM61.35 14.35L61.35 9.31C61.35 8.25 62.29 7.73 63.29 7.73C64.48 7.73 65.13 8.43 65.13 9.88L65.13 14.35L65.93 14.35L65.93 9.74C65.93 7.99 65.03 7.01 63.50 7.01C62.36 7.01 61.71 7.57 61.39 8.32L61.35 8.32L61.35 7.18L60.55 7.18L60.55 14.35ZM74.31 15.19C74.31 14.07 73.57 13.38 71.85 13.38L70.18 13.38C69.40 13.38 69.03 13.16 69.03 12.74C69.03 12.26 69.48 11.98 70.10 11.82C70.34 11.86 70.59 11.90 70.84 11.90C72.42 11.90 73.46 10.91 73.46 9.45C73.46 8.72 73.18 8.11 72.70 7.67L72.70 6.99L74.16 6.99L74.16 6.29L72.93 6.29C72.46 6.29 72.27 6.58 72.27 7.01L72.27 7.36C71.88 7.14 71.39 7.01 70.83 7.01C69.24 7.01 68.22 8.01 68.22 9.45C68.22 10.49 68.73 11.26 69.55 11.63L69.55 11.69C68.87 11.87 68.33 12.22 68.33 12.92C68.33 13.40 68.56 13.72 69.01 13.90L69.01 14.01C68.24 14.24 67.77 14.71 67.77 15.53C67.77 16.65 68.68 17.32 70.87 17.32C73.11 17.32 74.31 16.65 74.31 15.19ZM73.54 15.25C73.54 16.21 72.67 16.66 71.29 16.66L70.39 16.66C69.15 16.66 68.53 16.10 68.53 15.36C68.53 14.74 68.91 14.34 69.52 14.13L71.85 14.13C73.12 14.13 73.54 14.56 73.54 15.25ZM70.84 11.26C69.75 11.26 69.08 10.68 69.08 9.67L69.08 9.23C69.08 8.25 69.73 7.66 70.84 7.66C71.93 7.66 72.60 8.25 72.60 9.23L72.60 9.67C72.60 10.68 71.93 11.26 70.84 11.26Z"></path></g><!----><g data-v-423bf9ae="" id="9c2fa82e-1e6d-4f2b-87bb-983b8410a4cc" transform="matrix(1,0,0,1,117,-5)" stroke="none" fill="black"><path d="M50 95C25.187 95 5 74.812 5 50 5 25.187 25.187 5 50 5s45 20.187 45 45c0 24.812-20.188 45-45 45zm.886-11.316v9.534c22.836-.463 41.384-18.722 42.304-41.445h-9.542c-.911 17.466-15.181 31.455-32.762 31.911zM6.809 51.773c.921 22.723 19.468 40.982 42.303 41.445v-9.534c-17.579-.456-31.851-14.444-32.762-31.91H6.809zM50.886 73.48v8.428c16.602-.455 30.079-13.647 30.986-30.135h-8.441c-.887 11.841-10.588 21.263-22.545 21.707zm-32.76-21.707c.908 16.487 14.384 29.68 30.986 30.135V73.48c-11.957-.444-21.657-9.866-22.544-21.707h-8.442zm32.76 0v19.933c10.978-.442 19.884-9.071 20.765-19.933H50.886zm-22.539 0c.882 10.861 9.788 19.49 20.765 19.933V51.773H28.347zM83.694 50h9.531c0-23.539-18.913-42.743-42.339-43.217v9.535c18.172.47 32.808 15.399 32.808 33.682zm-10.197 0h8.424c0-17.305-13.842-31.438-31.035-31.909v8.428C63.435 26.986 73.497 37.34 73.497 50zm-22.611 0h20.837c0-11.682-9.268-21.24-20.837-21.706V50zm-22.611 0h20.837V28.294C37.543 28.76 28.275 38.318 28.275 50zm-10.197 0h8.424c0-12.66 10.062-23.014 22.61-23.481v-8.428C31.919 18.562 18.078 32.695 18.078 50zM6.773 50h9.532c0-18.283 14.636-33.212 32.807-33.683V6.783C25.686 7.257 6.773 26.461 6.773 50z"></path><path d="M94.1 50c.025-14.875-6.26-24.391-13.501-31.772L50.113 50.089 94.1 50z"></path></g><!----></svg>