<svg data-v-423bf9ae="" xmlns="http://www.w3.org/2000/svg" viewBox="0 0 60 60" class="icon"><!----><!----><!----><!----><g data-v-423bf9ae="" id="729347d1-2dae-4b82-8032-2c874d117841" transform="matrix(0.6666666865348816,0,0,0.6666666865348816,-3.333334445953369,-3.333334445953369)" stroke="none" fill="black"><path d="M50 95C25.187 95 5 74.812 5 50 5 25.187 25.187 5 50 5s45 20.187 45 45c0 24.812-20.188 45-45 45zm.886-11.316v9.534c22.836-.463 41.384-18.722 42.304-41.445h-9.542c-.911 17.466-15.181 31.455-32.762 31.911zM6.809 51.773c.921 22.723 19.468 40.982 42.303 41.445v-9.534c-17.579-.456-31.851-14.444-32.762-31.91H6.809zM50.886 73.48v8.428c16.602-.455 30.079-13.647 30.986-30.135h-8.441c-.887 11.841-10.588 21.263-22.545 21.707zm-32.76-21.707c.908 16.487 14.384 29.68 30.986 30.135V73.48c-11.957-.444-21.657-9.866-22.544-21.707h-8.442zm32.76 0v19.933c10.978-.442 19.884-9.071 20.765-19.933H50.886zm-22.539 0c.882 10.861 9.788 19.49 20.765 19.933V51.773H28.347zM83.694 50h9.531c0-23.539-18.913-42.743-42.339-43.217v9.535c18.172.47 32.808 15.399 32.808 33.682zm-10.197 0h8.424c0-17.305-13.842-31.438-31.035-31.909v8.428C63.435 26.986 73.497 37.34 73.497 50zm-22.611 0h20.837c0-11.682-9.268-21.24-20.837-21.706V50zm-22.611 0h20.837V28.294C37.543 28.76 28.275 38.318 28.275 50zm-10.197 0h8.424c0-12.66 10.062-23.014 22.61-23.481v-8.428C31.919 18.562 18.078 32.695 18.078 50zM6.773 50h9.532c0-18.283 14.636-33.212 32.807-33.683V6.783C25.686 7.257 6.773 26.461 6.773 50z"></path><path d="M94.1 50c.025-14.875-6.26-24.391-13.501-31.772L50.113 50.089 94.1 50z"></path></g><!----></svg>